<?xml version="1.0" encoding="UTF-8" standalone="no"?>
<svg
   xmlns:dc="http://purl.org/dc/elements/1.1/"
   xmlns:cc="http://creativecommons.org/ns#"
   xmlns:rdf="http://www.w3.org/1999/02/22-rdf-syntax-ns#"
   xmlns:svg="http://www.w3.org/2000/svg"
   xmlns="http://www.w3.org/2000/svg"
   xmlns:sodipodi="http://sodipodi.sourceforge.net/DTD/sodipodi-0.dtd"
   xmlns:inkscape="http://www.inkscape.org/namespaces/inkscape"
   viewBox="0 0 256 256"
   enable-background="new 0 0 26 26"
   id="svg2"
   version="1.1"
   inkscape:version="0.91 r13725"
   sodipodi:docname="tailblazer_4CAF50.svg"
   width="256"
   height="256"
   inkscape:export-filename="D:\Projects\github\TailBlazer\Images\icon\tailblazer_4CAF50.png"
   inkscape:export-xdpi="90"
   inkscape:export-ydpi="90">
  <metadata
     id="metadata10">
    <rdf:RDF>
      <cc:Work
         rdf:about="">
        <dc:format>image/svg+xml</dc:format>
        <dc:type
           rdf:resource="http://purl.org/dc/dcmitype/StillImage" />
        <dc:title />
      </cc:Work>
    </rdf:RDF>
  </metadata>
  <defs
     id="defs8" />
  <sodipodi:namedview
     pagecolor="#ffffff"
     bordercolor="#666666"
     borderopacity="1"
     objecttolerance="10"
     gridtolerance="10"
     guidetolerance="10"
     inkscape:pageopacity="0"
     inkscape:pageshadow="2"
     inkscape:window-width="1600"
     inkscape:window-height="847"
     id="namedview6"
     showgrid="false"
     inkscape:zoom="1.6045885"
     inkscape:cx="125.51441"
     inkscape:cy="112.71404"
     inkscape:window-x="-8"
     inkscape:window-y="-8"
     inkscape:window-maximized="1"
     inkscape:current-layer="svg2" />
  <path
     d="M 255.1832,1.5e-6 214.34379,26.790662 165.98993,58.808763 182.32569,28.424242 151.61445,45.08672 c 0,0 -24.91992,13.578642 -53.254595,30.711238 -28.334685,17.132608 -59.677326,37.190332 -75.797968,53.908032 -28.9934554,28.99345 -28.9934554,75.55547 0,104.54891 28.993454,28.99346 75.555458,28.99346 104.548913,0 16.13298,-16.133 34.54116,-43.20243 49.33401,-66.97663 14.79284,-23.77423 25.81052,-44.10658 25.81052,-44.10658 l 13.39533,-24.17694 -26.13723,9.47474 -3.92059,1.30687 L 229.04599,41.166138 255.1832,1.5e-6 Z m -69.91707,71.2239395 -33.32497,52.927889 -16.33577,25.4838 28.42424,-10.12817 5.55416,-1.96029 c -4.32423,7.41619 -4.83993,8.54858 -11.10833,18.62276 -14.48085,23.2728 -32.92616,50.24208 -46.06686,63.38277 -21.190015,21.19003 -53.954499,21.19003 -75.144523,0 -21.190023,-21.19001 -21.190023,-53.9545 0,-75.14452 l 0.326716,0 C 49.698358,131.8522 81.281095,110.6131 109.14145,93.767304 c 10.95308,-6.622798 11.97534,-6.84079 20.58306,-11.76175 l -2.28701,3.920588 -19.92963,36.918828 34.95854,-23.19679 42.79972,-28.424226 z M 73.856195,150.61578 c -17.773313,0 -31.364672,13.59134 -31.364672,31.36467 0,17.77331 13.591359,31.36468 31.364672,31.36468 17.77332,0 31.364665,-13.59137 31.364665,-31.36468 0,-17.77333 -13.591345,-31.36467 -31.364665,-31.36467 z"
     id="path4"
     inkscape:connector-curvature="0"
     style="fill:#4caf50;fill-opacity:1" />
</svg>
